<?xml version="1.0" encoding="utf-8"?>
<!-- Generator: Adobe Illustrator 19.2.1, SVG Export Plug-In . SVG Version: 6.00 Build 0)  -->
<svg version="1.1" id="Layer_1" xmlns="http://www.w3.org/2000/svg" xmlns:xlink="http://www.w3.org/1999/xlink" x="0px" y="0px"
	 viewBox="0 0 1115.3 75.5" style="enable-background:new 0 0 1115.3 75.5;" xml:space="preserve">
<style type="text/css">
	.st0{fill:#44403E;}
	.st1{fill:#FAAF40;}
</style>
<g>
	<g>
		<path class="st0" d="M38.3,74c-6.3-0.2-12.5-0.2-18.7-0.2C13,73.8,6.5,73.8,0,74v-2.2c3.7,0.3,6.7-0.8,6.7-5.7V23.2
			c0-5.9-2.8-6-6.7-6.1v-2.2c3.5,0.1,6.9,0.2,10.2,0.2c3.4,0,6.8-0.1,10.5-0.2v2.2c-3.9,0.1-6.7,0.2-6.7,6.1v39.2
			c0,6.3,1.2,8.9,11.7,8.9c8.6,0,11.5-2.4,13.8-10.6L41,61L38.3,74z"/>
		<path class="st0" d="M51.5,38.4c0-3.2-2-3.7-5.5-3.7v-2.2c2.8,0.1,5.7,0.2,8.5,0.2c3,0,6-0.1,8.8-0.2v2.2c-3.5,0-5.5,0.5-5.5,3.7
			v29.6c0,3.2,2,3.7,5.5,3.7V74c-2.7-0.1-5.8-0.2-8.8-0.2c-2.8,0-5.7,0.1-8.5,0.2v-2.2c3.5,0,5.5-0.5,5.5-3.7V38.4z"/>
		<path class="st0" d="M71.6,63.7h1.7c1.5,5.9,3.8,9.1,9.1,9.1c5.7,0,7-4.4,7-7c0-3.5-1.7-5.7-6.6-8.6c-8.1-4.8-10.3-8-10.3-14.6
			c0-5.8,4.4-11,10.8-11c2.8,0,6.3,0.8,8.7,0.8l0.7,8.3h-1.5c-0.8-3.4-2.4-6.9-7.3-6.9c-3.8,0-6.4,2.9-6.4,6.8
			c0,4.1,1.1,5.7,8.2,9.6c7.8,4.4,9.3,8,9.3,13.3c0,6.8-5.5,11.6-13.1,11.6c-3.4,0-6.3-0.8-9.1-2.3L71.6,63.7z"/>
		<path class="st0" d="M121.6,71.8h0.9c1.8,0,3.7-0.6,3.7-2c0-1-0.2-1.7-0.6-2.8l-2.7-8.5h-12.5l-1.6,5.5c-0.3,1.1-1.3,4-1.3,5.5
			c0,2,2.4,2.4,3.8,2.4h0.9V74c-2.5-0.1-5-0.2-7.5-0.2c-1.9,0-4.1,0.1-6,0.2v-2.2c3.8,0,4.9-1.8,5.5-3.6l10.5-30.9
			c0.4-1,0.7-2,0.7-2.8c0-0.4-0.1-0.8-0.1-1.2l5.7-2.5l11.1,35.9c1.2,3.9,2.3,5,6.2,5V74c-2.8-0.1-5.5-0.2-8.3-0.2
			c-2.7,0-5.5,0.1-8.3,0.2V71.8z M116.8,38.6h-0.1l-5.4,17.1h10.8L116.8,38.6z"/>
		<path class="st0" d="M206.7,47.4c-1.7,0-5.5-1.8-5.5-7.6c0-8,8.7-16,15.3-16c9.3,0,11.5,12.5,17,12.5c1.8,0,3-1.9,3-3.8
			c0-1.8-2.4-3.2-2.4-6.1c0-1.7,1.4-3,2.9-3c2.4,0,3.7,2.7,3.7,5.2c0,6.4-6.4,12.4-11.7,12.4c-3,0-5.7-3.2-7.6-5.6
			c-0.2,6.8-0.9,14.2-4.3,21.1c-4.1,8.3-11.8,18.9-27.6,18.9c-12.3,0-21.8-10.1-21.8-25.5c0-12.7,11.2-29.6,22.9-29.6
			c2,0,4.1,0.6,5.6,2.3c2.3-3.2,9.9-10.1,9.9-14.5c0-1.4-0.8-3.7-0.8-4.6c0-2.3,1.7-3.6,3.5-3.6c1.8,0,3,1.6,3,4.5
			c0,4.1-5.6,10.5-8,13.2l-18,19.6l-3.4,3.9l-4.2,5.7c-1.8,2.6-3.2,4.7-3.2,8.1c0,2.7,1.7,5.3,3.2,7.2c3,3.9,8.4,6,12.9,6
			c9.6,0,17.4-6,21.5-11.4c5-6.4,6.3-15.2,6.6-23.3c-0.5-2.1-5.2-4.2-7.6-4.2c-3,0-6.1,2.8-6.1,6.4c0,6.9,5.7,2.5,5.7,8.1
			C211,46.4,208.6,47.4,206.7,47.4z M172.6,46c0,1.3,0,2.7,0.3,4c2.4-3.8,4.9-7.1,7.5-10.2l8.2-9.9c0.3-0.4,0.4-0.7,0.4-1.1
			c0-1.6-2-3.1-3.7-3.1C178,25.7,172.6,36.9,172.6,46z"/>
		<path class="st0" d="M270.8,24.3c0-7.6-3.5-7.1-6.8-7.2v-2.2c2.9,0.2,5.8,0.2,8.7,0.2c3.1,0,7.3-0.2,12.8-0.2
			c19.1,0,29.5,14.6,29.5,29.6c0,8.4-4.3,29.5-30.4,29.5c-3.8,0-7.2-0.2-10.7-0.2c-3.3,0-6.6,0.1-9.9,0.2v-2.2
			c4.4-0.5,6.6-0.7,6.8-6.4V24.3z M278.1,64c0,6.5,4.1,7.3,7.7,7.3c15.9,0,21.2-13.8,21.2-26.4c0-15.8-8.9-27.2-23.1-27.2
			c-3,0-4.4,0.3-5.8,0.3V64z"/>
		<path class="st0" d="M344.4,31.5c11.9,0,19.8,9.3,19.8,21.5c0,10.5-7.6,22-20.3,22c-12.2,0-20.2-9-20.2-21.9
			C323.6,39.8,333.5,31.5,344.4,31.5z M344.7,72.3c9.3,0,12.2-9.3,12.2-18.4c0-11.8-5.8-19.6-13.6-19.6c-8.9,0-12.4,8.9-12.4,18
			C330.9,63.6,336.9,72.3,344.7,72.3z"/>
		<path class="st0" d="M376.4,37.8c0-3-3.1-3-5.1-3v-2.2c2.7,0.1,5.7,0.2,8.4,0.2c2.6,0,5.3-0.1,7.8-0.2v2.2c-2.2,0-4.8,0-4.8,2.9
			v23c0,7.8,4.2,10.9,9.9,10.9c10.3,0,10.3-9.2,10.3-17.7v-10c0-8.5-0.7-9.1-5.7-9.1v-2.2c2.4,0.1,4.9,0.2,7.4,0.2
			c2.1,0,4.1-0.1,6.1-0.2v2.2c-2.5,0-4.4,0.4-4.4,5.9v17.2c0,9.7-4.1,17.2-14.8,17.2c-9.4,0-15.1-4.1-15.1-14V37.8z"/>
		<path class="st0" d="M452.9,43.8h-1.6c-1.8-4.7-3.7-9.6-11.4-9.6c-8,0-14.8,5.6-14.8,19.1c0,7.9,3.8,19,15.6,19
			c1.8,0,3.5-0.5,5.2-1.4c0-0.8,0.1-5.4,0.1-6.5c0-4.7-0.6-6-5.7-6v-2.2c2.8,0.1,6,0.3,8.8,0.3c2.2,0,4.9-0.2,7.1-0.3v2.2
			c-3.5,0-4.3,0.5-4.3,3.4v5.4c0,1.5,0,2.8,1.3,3.3v1.6c-3.8,1.2-9.2,2.9-15.2,2.9c-11.9,0-20.2-9.6-20.2-21.4
			c0-13.5,9.1-22.1,20.7-22.1c1.9,0,3.5,0.3,6.9,0.8c1,0.2,5.8,1.2,6.8,1.4L452.9,43.8z"/>
		<path class="st0" d="M468.7,38.4c0-3.2-2-3.7-5.5-3.7v-2.2c2.8,0.1,5.7,0.2,8.5,0.2c2.9,0,6-0.1,8.8-0.2v2.2
			c-3.2,0-5.5,0.3-5.5,3.7v28.2c0,3.6,1,4.7,6.8,4.7c6.6,0,8.2-1.2,10.9-8h1.8L492.4,74c-1.9-0.1-11.5-0.2-13.6-0.2
			c-5.2,0-10.3,0.1-15.5,0.2v-2.2c3.5,0,5.5-0.5,5.5-3.7V38.4z"/>
		<path class="st0" d="M519.2,71.8h0.9c1.8,0,3.7-0.6,3.7-2c0-1-0.2-1.7-0.6-2.8l-2.7-8.5H508l-1.6,5.5c-0.3,1.1-1.3,4-1.3,5.5
			c0,2,2.4,2.4,3.8,2.4h0.9V74c-2.5-0.1-5-0.2-7.5-0.2c-1.9,0-4.1,0.1-6,0.2v-2.2c3.8,0,4.9-1.8,5.5-3.6l10.5-30.9
			c0.4-1,0.7-2,0.7-2.8c0-0.4-0.1-0.8-0.1-1.2l5.7-2.5l11.1,35.9c1.2,3.9,2.3,5,6.2,5V74c-2.8-0.1-5.5-0.2-8.3-0.2s-5.5,0.1-8.3,0.2
			V71.8z M514.4,38.6h-0.1l-5.4,17.1h10.8L514.4,38.6z"/>
		<path class="st0" d="M539.9,63.7h1.7c1.5,5.9,3.8,9.1,9.1,9.1c5.7,0,7-4.4,7-7c0-3.5-1.7-5.7-6.6-8.6c-8.1-4.8-10.3-8-10.3-14.6
			c0-5.8,4.4-11,10.8-11c2.8,0,6.3,0.8,8.7,0.8l0.7,8.3h-1.5c-0.8-3.4-2.4-6.9-7.3-6.9c-3.8,0-6.4,2.9-6.4,6.8
			c0,4.1,1.1,5.7,8.2,9.6c7.8,4.4,9.3,8,9.3,13.3c0,6.8-5.5,11.6-13.1,11.6c-3.4,0-6.3-0.8-9.1-2.3L539.9,63.7z"/>
		<path class="st1" d="M640.4,30.1h-1.6c-1.9-9.8-9.1-13.7-17.3-13.7c-13.1,0-20.6,13.1-20.6,26.9c0,14.6,7.8,29.3,21.1,29.3
			c5.8,0,8.9-2.4,10-3.3V56.6c0-6.2-2.8-6.2-6.7-6.2v-2.2c3.5,0.1,6.9,0.2,10.2,0.2c3.4,0,6.8-0.1,9-0.2v2.2c-2.4,0-5.2,0-5.2,6.2
			v11.1l1.1,1.3v1.4c-6,2.5-12.8,4.8-19.2,4.8c-20.7,0-28.3-18.6-28.3-30.7c0-17.8,12-30.9,27.4-30.9c6.6,0,12.8,1.9,19,4.6
			L640.4,30.1z"/>
		<path class="st1" d="M670.9,31.5c11.9,0,19.8,9.3,19.8,21.5c0,10.5-7.6,22-20.3,22c-12.2,0-20.2-9-20.2-21.9
			C650.2,39.8,660.1,31.5,670.9,31.5z M671.2,72.3c9.3,0,12.2-9.3,12.2-18.4c0-11.8-5.8-19.6-13.6-19.6c-8.9,0-12.4,8.9-12.4,18
			C657.4,63.6,663.4,72.3,671.2,72.3z"/>
		<path class="st1" d="M702.2,38.4c0-3.2-2-3.7-5.5-3.7v-2.2c2.8,0.1,5.7,0.2,8.5,0.2c2.9,0,6-0.1,8.8-0.2v2.2
			c-3.2,0-5.5,0.3-5.5,3.7v28.2c0,3.6,1,4.7,6.8,4.7c6.6,0,8.2-1.2,10.9-8h1.8L725.9,74c-1.9-0.1-11.5-0.2-13.6-0.2
			c-5.2,0-10.3,0.1-15.5,0.2v-2.2c3.5,0,5.5-0.5,5.5-3.7V38.4z"/>
		<path class="st1" d="M735.2,38.4c0-3.2-2-3.7-5.5-3.7v-2.2c2.7,0.1,5.8,0.2,8.9,0.2c3.8,0,7.5-0.2,11.2-0.2
			c14.8,0,21.2,10.6,21.2,20.3c0,16-10.8,21.2-21.5,21.2c-3.2,0-6.9-0.2-9.8-0.2c-3.3,0-6.6,0.1-9.9,0.2v-2.2c3.5,0,5.5-0.5,5.5-3.7
			V38.4z M741.6,65.9c0,4.9,2.4,5.3,5.9,5.3c7.1,0,16.3-2.6,16.3-17.4c0-10.4-4.2-18.6-14.1-18.6c-2.1,0-5.8,0.2-8.1,0.3V65.9z"/>
		<path class="st1" d="M817.2,32.5c1.7,0.1,3.5,0.2,5.2,0.2c1.9,0,4.1-0.1,6-0.2v2.2c-3.5,0-5.1,0.8-5.1,2.7c0,1.4,0.1,2.5,0.1,4.7
			l0.7,22c0.2,7.2,1.3,7.6,5.9,7.6V74c-2.8-0.1-5.9-0.2-8.7-0.2c-2.8,0-6,0.1-8.8,0.2v-2.2c3.9,0,5.3-0.5,5.3-4.2
			c0-6.3-0.5-16-0.8-27.9h-0.1L803,74.5h-1l-14-33.6h-0.1c-0.5,8.2-1.4,23.5-1.4,26.1c0,3.4,1.9,4.7,5.7,4.7V74
			c-2.1,0-4.4-0.2-6.5-0.2c-2.4,0-5.2,0.1-7.6,0.2v-2.2c4.9,0,5.5-1.9,5.8-5.7l1.4-22c0.2-3.3,0.3-4.9,0.3-7c0-2.1-1.2-2.4-5.5-2.4
			v-2.2c2.1,0,4.4,0.2,6.5,0.2c1.5,0,3.2-0.2,4.6-0.2l13.4,31.1L817.2,32.5z"/>
		<path class="st1" d="M856.5,71.8h0.9c1.8,0,3.7-0.6,3.7-2c0-1-0.2-1.7-0.6-2.8l-2.7-8.5h-12.5l-1.6,5.5c-0.3,1.1-1.3,4-1.3,5.5
			c0,2,2.4,2.4,3.8,2.4h0.9V74c-2.5-0.1-5-0.2-7.5-0.2c-1.9,0-4.1,0.1-6,0.2v-2.2c3.8,0,4.9-1.8,5.5-3.6l10.5-30.9
			c0.4-1,0.7-2,0.7-2.8c0-0.4-0.1-0.8-0.1-1.2l5.7-2.5l11.1,35.9c1.2,3.9,2.3,5,6.2,5V74c-2.8-0.1-5.5-0.2-8.3-0.2
			c-2.7,0-5.5,0.1-8.3,0.2V71.8z M851.6,38.6h-0.1l-5.4,17.1h10.8L851.6,38.6z"/>
		<path class="st1" d="M881.9,38.7c0-3.8-4.4-4-5.9-4v-2.2c1.8,0.1,3.5,0.2,5.2,0.2c1.5,0,3.4-0.1,4.9-0.2l22.5,30.3V40.6
			c0-5.8-2-5.9-5.9-5.9v-2.2c2.4,0.1,4.9,0.2,7.3,0.2c2.1,0,4.5-0.1,6.6-0.2v2.2c-3.5,0-5.1,0.2-5.1,4.4V75h-1.8l-24.9-33.3v22.6
			c0,6.1,0.7,7.5,6.3,7.5V74c-2.4-0.1-5.2-0.2-7.7-0.2c-2.5,0-5,0.1-7.5,0.2v-2.2c6,0,6-3.5,6-9.6V38.7z"/>
		<path class="st0" d="M955.9,65.7c0,5.9,2.8,6,6.7,6.1V74c-3.7-0.1-7.1-0.2-10.5-0.2c-3.3,0-6.7,0.1-10.5,0.2v-2.2
			c6.4,0,7-1.4,7-9.6V24.6c0-6.9-1.2-7.3-7-7.5v-2.2c5.2,0,10.6,0.2,16,0.2c6.7,0,13.5,0,20.1-0.2l0.4,11.9l-1.7,0.3
			c-0.7-7.2-3.8-9.6-11.9-9.6h-8.7v24h8.7c6,0,6.6-1,7.5-7h1.7c-0.1,1.6-0.3,6.2-0.3,9.2c0,2.7,0.1,6.7,0.3,9h-1.5
			c-0.9-5.8-1-7.7-7.4-7.7h-9V65.7z"/>
		<path class="st0" d="M988.3,37.8c0-3-3.1-3-5.1-3v-2.2c2.7,0.1,5.7,0.2,8.4,0.2c2.6,0,5.3-0.1,7.8-0.2v2.2c-2.2,0-4.8,0-4.8,2.9
			v23c0,7.8,4.2,10.9,9.9,10.9c10.3,0,10.3-9.2,10.3-17.7v-10c0-8.5-0.7-9.1-5.7-9.1v-2.2c2.4,0.1,4.9,0.2,7.4,0.2
			c2.1,0,4.1-0.1,6.1-0.2v2.2c-2.5,0-4.4,0.4-4.4,5.9v17.2c0,9.7-4.1,17.2-14.8,17.2c-9.4,0-15.1-4.1-15.1-14V37.8z"/>
		<path class="st0" d="M1033.6,38.7c0-3.8-4.4-4-5.9-4v-2.2c1.8,0.1,3.5,0.2,5.2,0.2c1.5,0,3.4-0.1,4.9-0.2l22.5,30.3V40.6
			c0-5.8-2-5.9-5.9-5.9v-2.2c2.4,0.1,4.9,0.2,7.3,0.2c2.1,0,4.5-0.1,6.6-0.2v2.2c-3.5,0-5.1,0.2-5.1,4.4V75h-1.8l-24.9-33.3v22.6
			c0,6.1,0.7,7.5,6.3,7.5V74c-2.4-0.1-5.2-0.2-7.7-0.2c-2.5,0-5,0.1-7.5,0.2v-2.2c6,0,6-3.5,6-9.6V38.7z"/>
		<path class="st0" d="M1079.6,38.4c0-3.2-2-3.7-5.5-3.7v-2.2c2.7,0.1,5.8,0.2,8.9,0.2c3.8,0,7.5-0.2,11.2-0.2
			c14.8,0,21.2,10.6,21.2,20.3c0,16-10.8,21.2-21.5,21.2c-3.2,0-6.9-0.2-9.8-0.2c-3.3,0-6.6,0.1-9.9,0.2v-2.2c3.5,0,5.5-0.5,5.5-3.7
			V38.4z M1085.9,65.9c0,4.9,2.4,5.3,5.9,5.3c7.1,0,16.3-2.6,16.3-17.4c0-10.4-4.2-18.6-14.1-18.6c-2.1,0-5.8,0.2-8.1,0.3V65.9z"/>
	</g>
</g>
</svg>
